<svg width="82" height="80" viewBox="0 0 82 80" fill="none" xmlns="http://www.w3.org/2000/svg">
<g filter="url(#filter0_ddddd_1294_49213)">
<path d="M54.793 43.0352C60.2027 43.0352 64.5883 47.413 64.5889 52.8125C64.5889 58.2125 60.2031 62.5908 54.793 62.5908L54.2891 62.5781C49.1131 62.3163 44.9971 58.0438 44.9971 52.8125C44.9977 47.413 49.3832 43.0352 54.793 43.0352ZM54.793 45.0352C50.4843 45.0352 46.9977 48.5211 46.9971 52.8125C46.9971 57.1045 50.4839 60.5908 54.793 60.5908C59.1021 60.5908 62.5889 57.1045 62.5889 52.8125C62.5883 48.521 59.1017 45.0352 54.793 45.0352ZM25.4053 16.5879C26.5098 16.5879 27.4052 17.4834 27.4053 18.5879V21.5264H50.834V18.5918C50.8341 17.4873 51.7295 16.5918 52.834 16.5918C53.9384 16.5919 54.8339 17.4874 54.834 18.5918V21.5264H56.6504L56.9072 21.5332C59.5491 21.6671 61.6504 23.8512 61.6504 26.5264V43.2871C61.0265 42.839 60.3575 42.4506 59.6504 42.1299V33.7705H18.5889V53.6816C18.5892 55.3382 19.9322 56.6816 21.5889 56.6816H43.6943C43.939 57.3812 44.2487 58.0496 44.6152 58.6816H21.5889L21.332 58.6748C18.7752 58.5454 16.7254 56.4952 16.5957 53.9385L16.5889 53.6816V26.5264C16.5889 23.7649 18.8274 21.5264 21.5889 21.5264H23.4053V18.5879C23.4054 17.4834 24.3008 16.5879 25.4053 16.5879ZM54.3174 47.4277C54.4676 46.9684 55.1184 46.9683 55.2686 47.4277L56.2197 50.3516C56.2867 50.5574 56.4788 50.6973 56.6953 50.6973H59.7734C60.2577 50.6976 60.4583 51.3171 60.0664 51.6016L57.5781 53.4062C57.4027 53.5335 57.3296 53.7597 57.3965 53.9658L58.3467 56.8867C58.4966 57.3472 57.9702 57.7306 57.5781 57.4463L55.0859 55.6387C54.911 55.5122 54.6739 55.5121 54.499 55.6387L52.0068 57.4463C51.6148 57.7302 51.0884 57.3471 51.2383 56.8867L52.1895 53.9658C52.2564 53.7597 52.1823 53.5335 52.0068 53.4062L49.5186 51.6016C49.1268 51.3169 49.3281 50.6973 49.8125 50.6973H52.8896C53.1062 50.6973 53.2982 50.5574 53.3652 50.3516L54.3174 47.4277ZM30.2832 47.9258C30.8353 47.926 31.2832 48.3736 31.2832 48.9258V50.8369C31.2832 51.389 30.8353 51.8367 30.2832 51.8369H26.4053C25.853 51.8369 25.4053 51.3892 25.4053 50.8369V48.9258C25.4053 48.3735 25.853 47.9258 26.4053 47.9258H30.2832ZM41.0586 47.9258C41.6108 47.9259 42.0586 48.3736 42.0586 48.9258V50.8369C42.0585 51.3891 41.6107 51.8368 41.0586 51.8369H37.1807C36.6285 51.8368 36.1807 51.3891 36.1807 50.8369V48.9258C36.1807 48.3735 36.6284 47.9258 37.1807 47.9258H41.0586ZM30.2832 39.126C30.8353 39.1262 31.2832 39.5738 31.2832 40.126V42.0371C31.2831 42.5892 30.8353 43.0369 30.2832 43.0371H26.4053C25.853 43.0371 25.4054 42.5893 25.4053 42.0371V40.126C25.4053 39.5737 25.853 39.126 26.4053 39.126H30.2832ZM41.0586 39.126C41.6108 39.1261 42.0586 39.5738 42.0586 40.126V42.0371C42.0585 42.5892 41.6107 43.037 41.0586 43.0371H37.1807C36.6285 43.037 36.1808 42.5893 36.1807 42.0371V40.126C36.1807 39.5737 36.6284 39.126 37.1807 39.126H41.0586ZM51.834 39.126C52.3862 39.1261 52.834 39.5737 52.834 40.126V41.2461C51.178 41.5235 49.6401 42.1454 48.2959 43.0371H47.9561C47.4039 43.037 46.9562 42.5892 46.9561 42.0371V40.126C46.9561 39.5738 47.4039 39.1261 47.9561 39.126H51.834ZM21.5889 23.5264C19.932 23.5264 18.5889 24.8695 18.5889 26.5264V31.7705H59.6504V26.5264C59.6504 24.8696 58.3071 23.5265 56.6504 23.5264H54.834V26.4141C54.8339 27.5185 53.9384 28.414 52.834 28.4141C51.7295 28.4141 50.8341 27.5185 50.834 26.4141V23.5264H27.4053V26.4102C27.4052 27.5147 26.5098 28.4102 25.4053 28.4102C24.3008 28.4102 23.4054 27.5147 23.4053 26.4102V23.5264H21.5889Z" fill="#7B43FF"/>
</g>
<defs>
<filter id="filter0_ddddd_1294_49213" x="6.67572e-05" y="-0.000909805" width="81.1776" height="79.1796" filterUnits="userSpaceOnUse" color-interpolation-filters="sRGB">
<feFlood flood-opacity="0" result="BackgroundImageFix"/>
<feColorMatrix in="SourceAlpha" type="matrix" values="0 0 0 0 0 0 0 0 0 0 0 0 0 0 0 0 0 0 127 0" result="hardAlpha"/>
<feOffset/>
<feGaussianBlur stdDeviation="0.3456"/>
<feColorMatrix type="matrix" values="0 0 0 0 0.258824 0 0 0 0 0 0 0 0 0 0.521569 0 0 0 1 0"/>
<feBlend mode="normal" in2="BackgroundImageFix" result="effect1_dropShadow_1294_49213"/>
<feColorMatrix in="SourceAlpha" type="matrix" values="0 0 0 0 0 0 0 0 0 0 0 0 0 0 0 0 0 0 127 0" result="hardAlpha"/>
<feOffset/>
<feGaussianBlur stdDeviation="0.6912"/>
<feColorMatrix type="matrix" values="0 0 0 0 0.258824 0 0 0 0 0 0 0 0 0 0.521569 0 0 0 1 0"/>
<feBlend mode="normal" in2="effect1_dropShadow_1294_49213" result="effect2_dropShadow_1294_49213"/>
<feColorMatrix in="SourceAlpha" type="matrix" values="0 0 0 0 0 0 0 0 0 0 0 0 0 0 0 0 0 0 127 0" result="hardAlpha"/>
<feOffset/>
<feGaussianBlur stdDeviation="2.4192"/>
<feColorMatrix type="matrix" values="0 0 0 0 0.258824 0 0 0 0 0 0 0 0 0 0.521569 0 0 0 1 0"/>
<feBlend mode="normal" in2="effect2_dropShadow_1294_49213" result="effect3_dropShadow_1294_49213"/>
<feColorMatrix in="SourceAlpha" type="matrix" values="0 0 0 0 0 0 0 0 0 0 0 0 0 0 0 0 0 0 127 0" result="hardAlpha"/>
<feOffset/>
<feGaussianBlur stdDeviation="4.8384"/>
<feColorMatrix type="matrix" values="0 0 0 0 0.258824 0 0 0 0 0 0 0 0 0 0.521569 0 0 0 1 0"/>
<feBlend mode="normal" in2="effect3_dropShadow_1294_49213" result="effect4_dropShadow_1294_49213"/>
<feColorMatrix in="SourceAlpha" type="matrix" values="0 0 0 0 0 0 0 0 0 0 0 0 0 0 0 0 0 0 127 0" result="hardAlpha"/>
<feOffset/>
<feGaussianBlur stdDeviation="8.2944"/>
<feColorMatrix type="matrix" values="0 0 0 0 0.258824 0 0 0 0 0 0 0 0 0 0.521569 0 0 0 1 0"/>
<feBlend mode="normal" in2="effect4_dropShadow_1294_49213" result="effect5_dropShadow_1294_49213"/>
<feBlend mode="normal" in="SourceGraphic" in2="effect5_dropShadow_1294_49213" result="shape"/>
</filter>
</defs>
</svg>
