<svg width="20" height="20" viewBox="0 0 20 20" fill="none" xmlns="http://www.w3.org/2000/svg">
<path d="M19 17C19 18.1046 18.1046 19 17 19H3C1.89543 19 1 18.1046 1 17V8.25H19V17ZM5.88086 10.4502V11.6201H8.56055L7.2666 13.0869V14.0498H7.93262C8.34662 14.0498 8.64701 14.1188 8.83301 14.2568C9.01895 14.3948 9.11133 14.5843 9.11133 14.8242C9.11128 15.0761 9.00673 15.274 8.79688 15.418C8.58687 15.562 8.29862 15.6338 7.93262 15.6338C7.60869 15.6338 7.28765 15.5834 6.96973 15.4814C6.65182 15.3795 6.37276 15.2413 6.13281 15.0674L5.56543 16.1826C5.86543 16.3986 6.23206 16.5675 6.66406 16.6875C7.09592 16.8014 7.53089 16.8584 7.96875 16.8584C8.56852 16.8584 9.0604 16.7622 9.44434 16.5703C9.82829 16.3783 10.1138 16.1292 10.2998 15.8232C10.4858 15.5113 10.5791 15.1782 10.5791 14.8242C10.5791 14.2782 10.3804 13.8314 9.98438 13.4834C9.7066 13.2393 9.33582 13.0826 8.87207 13.0098L10.291 11.3955V10.4502H5.88086ZM10.9639 10.4502V11.6201H12.2236V16.75H13.6816V10.4502H10.9639ZM4 4.375C4 5.20343 4.67157 5.875 5.5 5.875C6.32843 5.875 7 5.20343 7 4.375V3.25H13V4.375C13 5.20343 13.6716 5.875 14.5 5.875C15.3284 5.875 16 5.20343 16 4.375V3.25H17C18.1046 3.25 19 4.14543 19 5.25V7.25H1V5.25C1 4.14543 1.89543 3.25 3 3.25H4V4.375Z" fill="white"/>
<path d="M5.5 1V4.5M14.5 1V4.5" stroke="white" stroke-width="1.5" stroke-linecap="round"/>
</svg>
