<svg width="16" height="16" viewBox="0 0 16 16" fill="none" xmlns="http://www.w3.org/2000/svg">
<path d="M13.7041 0.0107422C14.7127 0.113046 15.5 0.96438 15.5 2V11.333L15.4893 11.5381C15.3935 12.4793 14.6454 13.2278 13.7041 13.3232L13.5 13.333H11.4092V14L11.3984 14.2051C11.3026 15.1462 10.5545 15.8948 9.61328 15.9902L9.40918 16H2.5C1.39554 16 0.500176 15.1044 0.5 14V4.66699C0.5 3.56242 1.39543 2.66699 2.5 2.66699H4.59082V2C4.59082 0.89546 5.48629 4.79631e-05 6.59082 0H13.5L13.7041 0.0107422ZM2.5 3.66699C1.94771 3.66699 1.5 4.11471 1.5 4.66699V14C1.50018 14.5521 1.94782 15 2.5 15H9.40918C9.96132 15 10.409 14.5521 10.4092 14V4.66699C10.4092 4.11474 9.96142 3.66704 9.40918 3.66699H2.5ZM9.61328 2.67773C10.6219 2.78005 11.4092 3.63138 11.4092 4.66699V12.333H13.5C14.0522 12.333 14.5 11.8853 14.5 11.333V2C14.5 1.44775 14.0522 1.00005 13.5 1H6.59082C6.03858 1.00005 5.59082 1.44775 5.59082 2V2.66699H9.40918L9.61328 2.67773Z" fill="#7B43FF"/>
</svg>
