<svg width="24" height="24" viewBox="0 0 24 24" fill="none" xmlns="http://www.w3.org/2000/svg">
<path d="M20.9621 15.7222V17.1656C20.9621 17.1656 19.6395 18.2673 18.5919 18.6091C17.139 19.083 16.0537 19.1761 14.6414 18.6091C13.7371 18.246 13.6421 17.3055 12.6662 17.1656C12.3614 17.1219 12.1809 17.1219 11.8761 17.1656C10.9002 17.3055 10.8052 18.246 9.90089 18.6091C8.48856 19.1761 7.40331 19.083 5.95044 18.6091C4.90277 18.2673 3.58018 17.1656 3.58018 17.1656V15.7222M20.9621 15.7222H22.5423V13.1961H20.9621M20.9621 15.7222V13.1961M20.9621 13.1961V12.8353C20.528 11.4505 19.5 10.5002 18.5919 10.3093C17.6837 10.1183 6.90089 10.1183 5.95044 10.3093C5 10.5002 4.01107 11.4576 3.58018 12.8353V13.1961M3.58018 13.1961H2V15.7222H3.58018M3.58018 13.1961V15.7222" stroke="#A282FF" stroke-linecap="round" stroke-linejoin="round"/>
<path d="M9.90102 8.33353C11.7478 7.83169 12.8309 7.84039 14.6416 8.33353M8.32084 6.75371C11.348 5.77825 13.1182 5.77052 16.2217 6.75371M6.74066 5.17348C11.1601 3.60846 13.5017 3.60922 17.8019 5.17348M5.99994 16.5C6.79908 17.0022 7.30385 17.0924 8.32084 17" stroke="#E83390" stroke-linecap="round" stroke-linejoin="round"/>
</svg>
